<svg width="24" height="24" viewBox="0 0 24 24" fill="none" xmlns="http://www.w3.org/2000/svg">
<mask id="path-1-inside-1_234:1426" fill="white">
<path fill-rule="evenodd" clip-rule="evenodd" d="M17 12L9.5 3L2 12V21H17V12Z"/>
</mask>
<path d="M9.5 3L11.0364 1.71963L9.5 -0.1241L7.96356 1.71963L9.5 3ZM17 12H19V11.2759L18.5364 10.7196L17 12ZM2 12L0.463557 10.7196L0 11.2759V12H2ZM2 21H0V23H2V21ZM17 21V23H19V21H17ZM7.96356 4.28037L15.4636 13.2804L18.5364 10.7196L11.0364 1.71963L7.96356 4.28037ZM3.53644 13.2804L11.0364 4.28037L7.96356 1.71963L0.463557 10.7196L3.53644 13.2804ZM4 21V12H0V21H4ZM17 19H2V23H17V19ZM15 12V21H19V12H15Z" fill="black" mask="url(#path-1-inside-1_234:1426)"/>
<path d="M17.472 11.3V8.388H14.56V7.212H17.472V4.3H18.648V7.212H21.56V8.388H18.648V11.3H17.472Z" fill="black"/>
</svg>
