<svg width="25" height="37" viewBox="0 0 25 37" fill="none" xmlns="http://www.w3.org/2000/svg">
<path d="M12.5 5.9C13.66 5.9 14.6 6.84 14.6 8C14.6 9.16 13.66 10.1 12.5 10.1C11.34 10.1 10.4 9.16 10.4 8C10.4 6.84 11.34 5.9 12.5 5.9ZM12.5 14.9C15.47 14.9 18.6 16.36 18.6 17V18.1H6.4V17C6.4 16.36 9.53 14.9 12.5 14.9ZM12.5 4C10.29 4 8.5 5.79 8.5 8C8.5 10.21 10.29 12 12.5 12C14.71 12 16.5 10.21 16.5 8C16.5 5.79 14.71 4 12.5 4ZM12.5 13C9.83 13 4.5 14.34 4.5 17V20H20.5V17C20.5 14.34 15.17 13 12.5 13Z" fill="#AF9AFF"/>
<path d="M1.22 36V27.6H3.908C4.356 27.6 4.76 27.71 5.12 27.93C5.48 28.146 5.766 28.44 5.978 28.812C6.194 29.18 6.302 29.594 6.302 30.054C6.302 30.518 6.192 30.936 5.972 31.308C5.756 31.68 5.466 31.974 5.102 32.19C4.742 32.406 4.344 32.514 3.908 32.514H2.06V36H1.22ZM2.06 31.674H3.842C4.138 31.674 4.408 31.602 4.652 31.458C4.9 31.31 5.096 31.112 5.24 30.864C5.388 30.612 5.462 30.328 5.462 30.012C5.462 29.696 5.388 29.414 5.24 29.166C5.096 28.914 4.9 28.716 4.652 28.572C4.408 28.424 4.138 28.35 3.842 28.35H2.06V31.674ZM11.1381 30.816C11.0381 30.764 10.9321 30.724 10.8201 30.696C10.7081 30.668 10.5881 30.654 10.4601 30.654C10.1121 30.654 9.80006 30.75 9.52406 30.942C9.24806 31.134 9.03006 31.394 8.87006 31.722C8.71006 32.046 8.63006 32.406 8.63006 32.802V36H7.78406V30H8.62406V31.002C8.84806 30.638 9.12606 30.354 9.45806 30.15C9.79406 29.942 10.1641 29.838 10.5681 29.838C10.6961 29.838 10.8181 29.846 10.9341 29.862C11.0541 29.874 11.1681 29.898 11.2761 29.934L11.1381 30.816ZM14.785 36.156C14.233 36.156 13.729 36.014 13.273 35.73C12.821 35.446 12.459 35.066 12.187 34.59C11.919 34.11 11.785 33.58 11.785 33C11.785 32.56 11.863 32.15 12.019 31.77C12.175 31.386 12.389 31.05 12.661 30.762C12.937 30.47 13.257 30.242 13.621 30.078C13.985 29.914 14.373 29.832 14.785 29.832C15.337 29.832 15.839 29.974 16.291 30.258C16.747 30.542 17.109 30.924 17.377 31.404C17.649 31.884 17.785 32.416 17.785 33C17.785 33.436 17.707 33.844 17.551 34.224C17.395 34.604 17.179 34.94 16.903 35.232C16.631 35.52 16.313 35.746 15.949 35.91C15.589 36.074 15.201 36.156 14.785 36.156ZM14.785 35.316C15.193 35.316 15.559 35.21 15.883 34.998C16.211 34.782 16.469 34.498 16.657 34.146C16.849 33.794 16.945 33.412 16.945 33C16.945 32.58 16.849 32.194 16.657 31.842C16.465 31.486 16.205 31.202 15.877 30.99C15.553 30.778 15.189 30.672 14.785 30.672C14.377 30.672 14.009 30.78 13.681 30.996C13.357 31.208 13.099 31.49 12.907 31.842C12.719 32.194 12.625 32.58 12.625 33C12.625 33.432 12.723 33.824 12.919 34.176C13.115 34.524 13.377 34.802 13.705 35.01C14.033 35.214 14.393 35.316 14.785 35.316ZM21.1738 36.114C20.8458 36.106 20.5258 36.046 20.2138 35.934C19.9018 35.822 19.6298 35.67 19.3978 35.478C19.1658 35.286 18.9998 35.068 18.8998 34.824L19.6258 34.512C19.6898 34.668 19.8078 34.812 19.9798 34.944C20.1558 35.072 20.3558 35.176 20.5798 35.256C20.8038 35.332 21.0258 35.37 21.2458 35.37C21.4898 35.37 21.7178 35.33 21.9298 35.25C22.1418 35.17 22.3138 35.056 22.4458 34.908C22.5818 34.756 22.6498 34.578 22.6498 34.374C22.6498 34.154 22.5778 33.982 22.4338 33.858C22.2898 33.73 22.1078 33.63 21.8878 33.558C21.6678 33.482 21.4418 33.41 21.2098 33.342C20.7858 33.226 20.4118 33.098 20.0878 32.958C19.7638 32.818 19.5098 32.64 19.3258 32.424C19.1458 32.204 19.0558 31.922 19.0558 31.578C19.0558 31.214 19.1578 30.9 19.3618 30.636C19.5698 30.368 19.8398 30.162 20.1718 30.018C20.5078 29.87 20.8658 29.796 21.2458 29.796C21.7338 29.796 22.1778 29.902 22.5778 30.114C22.9818 30.326 23.2738 30.608 23.4538 30.96L22.7758 31.362C22.7038 31.198 22.5898 31.056 22.4338 30.936C22.2778 30.816 22.0998 30.722 21.8998 30.654C21.7038 30.586 21.5038 30.55 21.2998 30.546C21.0438 30.542 20.8058 30.58 20.5858 30.66C20.3658 30.736 20.1878 30.85 20.0518 31.002C19.9198 31.154 19.8538 31.34 19.8538 31.56C19.8538 31.78 19.9198 31.948 20.0518 32.064C20.1838 32.176 20.3618 32.268 20.5858 32.34C20.8138 32.408 21.0698 32.488 21.3538 32.58C21.7178 32.696 22.0598 32.828 22.3798 32.976C22.6998 33.124 22.9578 33.308 23.1538 33.528C23.3498 33.748 23.4458 34.026 23.4418 34.362C23.4418 34.722 23.3338 35.036 23.1178 35.304C22.9018 35.572 22.6218 35.778 22.2778 35.922C21.9338 36.062 21.5658 36.126 21.1738 36.114Z" fill="#AF9AFF"/>
</svg>
