<svg width="36" height="37" viewBox="0 0 36 37" fill="none" xmlns="http://www.w3.org/2000/svg">
<path d="M18 2C12.48 2 8 6.48 8 12C8 17.52 12.48 22 18 22C23.52 22 28 17.52 28 12C28 6.48 23.52 2 18 2ZM18 5C19.66 5 21 6.34 21 8C21 9.66 19.66 11 18 11C16.34 11 15 9.66 15 8C15 6.34 16.34 5 18 5ZM18 19.2C15.5 19.2 13.29 17.92 12 15.98C12.03 13.99 16 12.9 18 12.9C19.99 12.9 23.97 13.99 24 15.98C22.71 17.92 20.5 19.2 18 19.2Z" fill="#AF9AFF"/>
<path d="M1.22 36V27.6H3.908C4.356 27.6 4.76 27.71 5.12 27.93C5.48 28.146 5.766 28.44 5.978 28.812C6.194 29.18 6.302 29.594 6.302 30.054C6.302 30.518 6.192 30.936 5.972 31.308C5.756 31.68 5.466 31.974 5.102 32.19C4.742 32.406 4.344 32.514 3.908 32.514H2.06V36H1.22ZM2.06 31.674H3.842C4.138 31.674 4.408 31.602 4.652 31.458C4.9 31.31 5.096 31.112 5.24 30.864C5.388 30.612 5.462 30.328 5.462 30.012C5.462 29.696 5.388 29.414 5.24 29.166C5.096 28.914 4.9 28.716 4.652 28.572C4.408 28.424 4.138 28.35 3.842 28.35H2.06V31.674ZM11.1381 30.816C11.0381 30.764 10.9321 30.724 10.8201 30.696C10.7081 30.668 10.5881 30.654 10.4601 30.654C10.1121 30.654 9.80006 30.75 9.52406 30.942C9.24806 31.134 9.03006 31.394 8.87006 31.722C8.71006 32.046 8.63006 32.406 8.63006 32.802V36H7.78406V30H8.62406V31.002C8.84806 30.638 9.12606 30.354 9.45806 30.15C9.79406 29.942 10.1641 29.838 10.5681 29.838C10.6961 29.838 10.8181 29.846 10.9341 29.862C11.0541 29.874 11.1681 29.898 11.2761 29.934L11.1381 30.816ZM14.785 36.156C14.233 36.156 13.729 36.014 13.273 35.73C12.821 35.446 12.459 35.066 12.187 34.59C11.919 34.11 11.785 33.58 11.785 33C11.785 32.56 11.863 32.15 12.019 31.77C12.175 31.386 12.389 31.05 12.661 30.762C12.937 30.47 13.257 30.242 13.621 30.078C13.985 29.914 14.373 29.832 14.785 29.832C15.337 29.832 15.839 29.974 16.291 30.258C16.747 30.542 17.109 30.924 17.377 31.404C17.649 31.884 17.785 32.416 17.785 33C17.785 33.436 17.707 33.844 17.551 34.224C17.395 34.604 17.179 34.94 16.903 35.232C16.631 35.52 16.313 35.746 15.949 35.91C15.589 36.074 15.201 36.156 14.785 36.156ZM14.785 35.316C15.193 35.316 15.559 35.21 15.883 34.998C16.211 34.782 16.469 34.498 16.657 34.146C16.849 33.794 16.945 33.412 16.945 33C16.945 32.58 16.849 32.194 16.657 31.842C16.465 31.486 16.205 31.202 15.877 30.99C15.553 30.778 15.189 30.672 14.785 30.672C14.377 30.672 14.009 30.78 13.681 30.996C13.357 31.208 13.099 31.49 12.907 31.842C12.719 32.194 12.625 32.58 12.625 33C12.625 33.432 12.723 33.824 12.919 34.176C13.115 34.524 13.377 34.802 13.705 35.01C14.033 35.214 14.393 35.316 14.785 35.316ZM20.5018 28.434V30H22.3018V30.84H20.5018V36H19.6618V30.84H18.8398V30H19.6618V28.434C19.6618 28.142 19.7318 27.878 19.8718 27.642C20.0158 27.402 20.2078 27.212 20.4478 27.072C20.6878 26.928 20.9538 26.856 21.2458 26.856C21.4578 26.856 21.6618 26.898 21.8578 26.982C22.0578 27.066 22.2358 27.19 22.3918 27.354L21.7918 27.948C21.7278 27.868 21.6458 27.806 21.5458 27.762C21.4498 27.718 21.3498 27.696 21.2458 27.696C21.0418 27.696 20.8658 27.768 20.7178 27.912C20.5738 28.056 20.5018 28.23 20.5018 28.434ZM23.6208 30H24.4608V36H23.6208V30ZM24.0468 28.83C23.9108 28.83 23.7948 28.786 23.6988 28.698C23.6068 28.606 23.5608 28.492 23.5608 28.356C23.5608 28.22 23.6068 28.108 23.6988 28.02C23.7948 27.928 23.9108 27.882 24.0468 27.882C24.1788 27.882 24.2908 27.928 24.3828 28.02C24.4788 28.108 24.5268 28.22 24.5268 28.356C24.5268 28.492 24.4788 28.606 24.3828 28.698C24.2908 28.786 24.1788 28.83 24.0468 28.83ZM26.672 36V27H27.512V36H26.672ZM32.1116 36.156C31.5596 36.156 31.0556 36.014 30.5996 35.73C30.1476 35.446 29.7856 35.066 29.5136 34.59C29.2456 34.11 29.1116 33.58 29.1116 33C29.1116 32.56 29.1896 32.15 29.3456 31.77C29.5016 31.386 29.7156 31.05 29.9876 30.762C30.2636 30.47 30.5836 30.242 30.9476 30.078C31.3116 29.914 31.6996 29.832 32.1116 29.832C32.5556 29.832 32.9636 29.92 33.3356 30.096C33.7116 30.272 34.0336 30.518 34.3016 30.834C34.5736 31.15 34.7776 31.52 34.9136 31.944C35.0536 32.368 35.1116 32.826 35.0876 33.318H29.9996C30.0476 33.698 30.1676 34.038 30.3596 34.338C30.5556 34.638 30.8036 34.876 31.1036 35.052C31.4076 35.224 31.7436 35.312 32.1116 35.316C32.5116 35.316 32.8716 35.212 33.1916 35.004C33.5156 34.796 33.7756 34.51 33.9716 34.146L34.8236 34.344C34.5836 34.876 34.2216 35.312 33.7376 35.652C33.2536 35.988 32.7116 36.156 32.1116 36.156ZM29.9756 32.64H34.2416C34.2136 32.268 34.0996 31.928 33.8996 31.62C33.7036 31.308 33.4496 31.06 33.1376 30.876C32.8256 30.688 32.4836 30.594 32.1116 30.594C31.7396 30.594 31.3996 30.686 31.0916 30.87C30.7836 31.05 30.5316 31.296 30.3356 31.608C30.1396 31.916 30.0196 32.26 29.9756 32.64Z" fill="#AF9AFF"/>
</svg>
