<svg width="32" height="37" viewBox="0 0 32 37" fill="none" xmlns="http://www.w3.org/2000/svg">
<path d="M24 4H8V6H24V4ZM25 14V12L24 7H8L7 12V14H8V20H18V14H22V20H24V14H25ZM16 18H10V14H16V18Z" fill="#AF9AFF"/>
<path d="M4.154 36.156C3.706 36.156 3.272 36.086 2.852 35.946C2.436 35.806 2.072 35.606 1.76 35.346C1.448 35.086 1.228 34.776 1.1 34.416L1.886 34.122C1.974 34.37 2.134 34.584 2.366 34.764C2.602 34.94 2.876 35.076 3.188 35.172C3.504 35.268 3.826 35.316 4.154 35.316C4.538 35.316 4.896 35.252 5.228 35.124C5.56 34.996 5.828 34.818 6.032 34.59C6.236 34.358 6.338 34.086 6.338 33.774C6.338 33.458 6.232 33.198 6.02 32.994C5.808 32.79 5.534 32.63 5.198 32.514C4.866 32.394 4.518 32.302 4.154 32.238C3.582 32.138 3.068 32.002 2.612 31.83C2.16 31.658 1.802 31.416 1.538 31.104C1.274 30.788 1.142 30.372 1.142 29.856C1.142 29.372 1.282 28.952 1.562 28.596C1.842 28.24 2.21 27.964 2.666 27.768C3.126 27.572 3.622 27.474 4.154 27.474C4.59 27.474 5.016 27.542 5.432 27.678C5.848 27.814 6.214 28.012 6.53 28.272C6.85 28.532 7.08 28.85 7.22 29.226L6.422 29.514C6.334 29.262 6.172 29.048 5.936 28.872C5.704 28.692 5.432 28.556 5.12 28.464C4.808 28.368 4.486 28.32 4.154 28.32C3.774 28.316 3.418 28.38 3.086 28.512C2.758 28.64 2.492 28.82 2.288 29.052C2.084 29.28 1.982 29.548 1.982 29.856C1.982 30.216 2.076 30.494 2.264 30.69C2.456 30.882 2.716 31.026 3.044 31.122C3.372 31.218 3.742 31.304 4.154 31.38C4.69 31.472 5.188 31.616 5.648 31.812C6.108 32.004 6.478 32.262 6.758 32.586C7.038 32.906 7.178 33.302 7.178 33.774C7.178 34.254 7.038 34.674 6.758 35.034C6.478 35.39 6.108 35.666 5.648 35.862C5.192 36.058 4.694 36.156 4.154 36.156ZM11.9633 30.84H10.5293L10.5233 36H9.68334L9.68934 30.84H8.60334V30H9.68934L9.68334 28.116H10.5233L10.5293 30H11.9633V30.84ZM15.8983 36.156C15.3463 36.156 14.8423 36.014 14.3863 35.73C13.9343 35.446 13.5723 35.066 13.3003 34.59C13.0323 34.11 12.8983 33.58 12.8983 33C12.8983 32.56 12.9763 32.15 13.1323 31.77C13.2883 31.386 13.5023 31.05 13.7743 30.762C14.0503 30.47 14.3703 30.242 14.7343 30.078C15.0983 29.914 15.4863 29.832 15.8983 29.832C16.4503 29.832 16.9523 29.974 17.4043 30.258C17.8603 30.542 18.2223 30.924 18.4903 31.404C18.7623 31.884 18.8983 32.416 18.8983 33C18.8983 33.436 18.8203 33.844 18.6643 34.224C18.5083 34.604 18.2923 34.94 18.0163 35.232C17.7443 35.52 17.4263 35.746 17.0623 35.91C16.7023 36.074 16.3143 36.156 15.8983 36.156ZM15.8983 35.316C16.3063 35.316 16.6723 35.21 16.9963 34.998C17.3243 34.782 17.5823 34.498 17.7703 34.146C17.9623 33.794 18.0583 33.412 18.0583 33C18.0583 32.58 17.9623 32.194 17.7703 31.842C17.5783 31.486 17.3183 31.202 16.9903 30.99C16.6663 30.778 16.3023 30.672 15.8983 30.672C15.4903 30.672 15.1223 30.78 14.7943 30.996C14.4703 31.208 14.2123 31.49 14.0203 31.842C13.8323 32.194 13.7383 32.58 13.7383 33C13.7383 33.432 13.8363 33.824 14.0323 34.176C14.2283 34.524 14.4903 34.802 14.8183 35.01C15.1463 35.214 15.5063 35.316 15.8983 35.316ZM23.6685 30.816C23.5685 30.764 23.4625 30.724 23.3505 30.696C23.2385 30.668 23.1185 30.654 22.9905 30.654C22.6425 30.654 22.3305 30.75 22.0545 30.942C21.7785 31.134 21.5605 31.394 21.4005 31.722C21.2405 32.046 21.1605 32.406 21.1605 32.802V36H20.3145V30H21.1545V31.002C21.3785 30.638 21.6565 30.354 21.9885 30.15C22.3245 29.942 22.6945 29.838 23.0985 29.838C23.2265 29.838 23.3485 29.846 23.4645 29.862C23.5845 29.874 23.6985 29.898 23.8065 29.934L23.6685 30.816ZM27.3155 36.156C26.7635 36.156 26.2595 36.014 25.8035 35.73C25.3515 35.446 24.9895 35.066 24.7175 34.59C24.4495 34.11 24.3155 33.58 24.3155 33C24.3155 32.56 24.3935 32.15 24.5495 31.77C24.7055 31.386 24.9195 31.05 25.1915 30.762C25.4675 30.47 25.7875 30.242 26.1515 30.078C26.5155 29.914 26.9035 29.832 27.3155 29.832C27.7595 29.832 28.1675 29.92 28.5395 30.096C28.9155 30.272 29.2375 30.518 29.5055 30.834C29.7775 31.15 29.9815 31.52 30.1175 31.944C30.2575 32.368 30.3155 32.826 30.2915 33.318H25.2035C25.2515 33.698 25.3715 34.038 25.5635 34.338C25.7595 34.638 26.0075 34.876 26.3075 35.052C26.6115 35.224 26.9475 35.312 27.3155 35.316C27.7155 35.316 28.0755 35.212 28.3955 35.004C28.7195 34.796 28.9795 34.51 29.1755 34.146L30.0275 34.344C29.7875 34.876 29.4255 35.312 28.9415 35.652C28.4575 35.988 27.9155 36.156 27.3155 36.156ZM25.1795 32.64H29.4455C29.4175 32.268 29.3035 31.928 29.1035 31.62C28.9075 31.308 28.6535 31.06 28.3415 30.876C28.0295 30.688 27.6875 30.594 27.3155 30.594C26.9435 30.594 26.6035 30.686 26.2955 30.87C25.9875 31.05 25.7355 31.296 25.5395 31.608C25.3435 31.916 25.2235 32.26 25.1795 32.64Z" fill="#AF9AFF"/>
</svg>
