<svg width="38" height="37" viewBox="0 0 38 37" fill="none" xmlns="http://www.w3.org/2000/svg">
<path d="M26.5 10.5H25V12H26.5C27.0966 12.0006 27.6685 12.2378 28.0903 12.6597C28.5122 13.0815 28.7494 13.6534 28.75 14.25V17.25H30.25V14.25C30.2488 13.2558 29.8533 12.3027 29.1503 11.5997C28.4473 10.8967 27.4942 10.5012 26.5 10.5Z" fill="#AF9AFF"/>
<path d="M25 3C25.445 3 25.88 3.13196 26.25 3.37919C26.62 3.62643 26.9084 3.97783 27.0787 4.38896C27.249 4.8001 27.2936 5.2525 27.2068 5.68895C27.12 6.12541 26.9057 6.52632 26.591 6.84099C26.2763 7.15566 25.8754 7.36995 25.439 7.45677C25.0025 7.54358 24.5501 7.49903 24.139 7.32873C23.7278 7.15843 23.3764 6.87004 23.1292 6.50003C22.882 6.13002 22.75 5.69501 22.75 5.25C22.75 4.65326 22.9871 4.08097 23.409 3.65901C23.831 3.23705 24.4033 3 25 3ZM25 1.5C24.2583 1.5 23.5333 1.71993 22.9166 2.13199C22.2999 2.54404 21.8193 3.12971 21.5355 3.81494C21.2516 4.50016 21.1774 5.25416 21.3221 5.98159C21.4668 6.70902 21.8239 7.3772 22.3484 7.90165C22.8728 8.4261 23.541 8.78325 24.2684 8.92795C24.9958 9.07264 25.7498 8.99838 26.4351 8.71455C27.1203 8.43072 27.706 7.95007 28.118 7.33339C28.5301 6.7167 28.75 5.99168 28.75 5.25C28.75 4.25544 28.3549 3.30161 27.6517 2.59835C26.9484 1.89509 25.9946 1.5 25 1.5Z" fill="#AF9AFF"/>
<path d="M24.25 22.5H22.75V21C22.7494 20.4034 22.5122 19.8315 22.0903 19.4097C21.6685 18.9878 21.0966 18.7506 20.5 18.75H17.5C16.9034 18.7506 16.3315 18.9878 15.9097 19.4097C15.4878 19.8315 15.2506 20.4034 15.25 21V22.5H13.75V21C13.7512 20.0058 14.1467 19.0527 14.8497 18.3497C15.5527 17.6467 16.5058 17.2512 17.5 17.25H20.5C21.4942 17.2512 22.4473 17.6467 23.1503 18.3497C23.8533 19.0527 24.2488 20.0058 24.25 21V22.5Z" fill="#AF9AFF"/>
<path d="M19 9.75C19.445 9.75 19.88 9.88196 20.25 10.1292C20.62 10.3764 20.9084 10.7278 21.0787 11.139C21.249 11.5501 21.2936 12.0025 21.2068 12.439C21.12 12.8754 20.9057 13.2763 20.591 13.591C20.2763 13.9057 19.8754 14.12 19.439 14.2068C19.0025 14.2936 18.5501 14.249 18.139 14.0787C17.7278 13.9084 17.3764 13.62 17.1292 13.25C16.882 12.88 16.75 12.445 16.75 12C16.75 11.4033 16.9871 10.831 17.409 10.409C17.831 9.98705 18.4033 9.75 19 9.75ZM19 8.25C18.2583 8.25 17.5333 8.46993 16.9166 8.88199C16.2999 9.29404 15.8193 9.87971 15.5355 10.5649C15.2516 11.2502 15.1774 12.0042 15.3221 12.7316C15.4668 13.459 15.8239 14.1272 16.3484 14.6517C16.8728 15.1761 17.541 15.5333 18.2684 15.6779C18.9958 15.8226 19.7498 15.7484 20.4351 15.4645C21.1203 15.1807 21.706 14.7001 22.118 14.0834C22.5301 13.4667 22.75 12.7417 22.75 12C22.75 11.0054 22.3549 10.0516 21.6517 9.34835C20.9484 8.64509 19.9946 8.25 19 8.25Z" fill="#AF9AFF"/>
<path d="M13 10.5H11.5C10.5058 10.5012 9.55267 10.8967 8.84966 11.5997C8.14666 12.3027 7.75119 13.2558 7.75 14.25V17.25H9.25V14.25C9.2506 13.6534 9.48784 13.0815 9.90967 12.6597C10.3315 12.2378 10.9034 12.0006 11.5 12H13V10.5Z" fill="#AF9AFF"/>
<path d="M13 3C13.445 3 13.88 3.13196 14.25 3.37919C14.62 3.62643 14.9084 3.97783 15.0787 4.38896C15.249 4.8001 15.2936 5.2525 15.2068 5.68895C15.12 6.12541 14.9057 6.52632 14.591 6.84099C14.2763 7.15566 13.8754 7.36995 13.439 7.45677C13.0025 7.54358 12.5501 7.49903 12.139 7.32873C11.7278 7.15843 11.3764 6.87004 11.1292 6.50003C10.882 6.13002 10.75 5.69501 10.75 5.25C10.75 4.65326 10.9871 4.08097 11.409 3.65901C11.831 3.23705 12.4033 3 13 3ZM13 1.5C12.2583 1.5 11.5333 1.71993 10.9166 2.13199C10.2999 2.54404 9.81928 3.12971 9.53545 3.81494C9.25162 4.50016 9.17736 5.25416 9.32206 5.98159C9.46675 6.70902 9.8239 7.3772 10.3484 7.90165C10.8728 8.4261 11.541 8.78325 12.2684 8.92795C12.9958 9.07264 13.7498 8.99838 14.4351 8.71455C15.1203 8.43072 15.706 7.95007 16.118 7.33339C16.5301 6.7167 16.75 5.99168 16.75 5.25C16.75 4.25544 16.3549 3.30161 15.6517 2.59835C14.9484 1.89509 13.9946 1.5 13 1.5Z" fill="#AF9AFF"/>
<path d="M1.22 36V27.6H6.332V28.44H2.06V31.08H5.594V31.92H2.06V35.16H6.332V36H1.22ZM10.7289 36H9.66094L7.47094 29.982H8.36494L10.1949 35.016L12.0249 29.982H12.9189L10.7289 36ZM16.6717 36.156C16.1197 36.156 15.6157 36.014 15.1597 35.73C14.7077 35.446 14.3457 35.066 14.0737 34.59C13.8057 34.11 13.6717 33.58 13.6717 33C13.6717 32.56 13.7497 32.15 13.9057 31.77C14.0617 31.386 14.2757 31.05 14.5477 30.762C14.8237 30.47 15.1437 30.242 15.5077 30.078C15.8717 29.914 16.2597 29.832 16.6717 29.832C17.1157 29.832 17.5237 29.92 17.8957 30.096C18.2717 30.272 18.5937 30.518 18.8617 30.834C19.1337 31.15 19.3377 31.52 19.4737 31.944C19.6137 32.368 19.6717 32.826 19.6477 33.318H14.5597C14.6077 33.698 14.7277 34.038 14.9197 34.338C15.1157 34.638 15.3637 34.876 15.6637 35.052C15.9677 35.224 16.3037 35.312 16.6717 35.316C17.0717 35.316 17.4317 35.212 17.7517 35.004C18.0757 34.796 18.3357 34.51 18.5317 34.146L19.3837 34.344C19.1437 34.876 18.7817 35.312 18.2977 35.652C17.8137 35.988 17.2717 36.156 16.6717 36.156ZM14.5357 32.64H18.8017C18.7737 32.268 18.6597 31.928 18.4597 31.62C18.2637 31.308 18.0097 31.06 17.6977 30.876C17.3857 30.688 17.0437 30.594 16.6717 30.594C16.2997 30.594 15.9597 30.686 15.6517 30.87C15.3437 31.05 15.0917 31.296 14.8957 31.608C14.6997 31.916 14.5797 32.26 14.5357 32.64ZM26.35 32.772V36H25.51V32.796C25.51 32.4 25.426 32.04 25.258 31.716C25.094 31.392 24.87 31.134 24.586 30.942C24.306 30.746 23.99 30.648 23.638 30.648C23.29 30.648 22.978 30.746 22.702 30.942C22.426 31.134 22.208 31.392 22.048 31.716C21.888 32.04 21.808 32.4 21.808 32.796V36H20.968V30H21.808V31.002C22.032 30.634 22.31 30.348 22.642 30.144C22.974 29.936 23.342 29.832 23.746 29.832C24.258 29.832 24.708 29.968 25.096 30.24C25.484 30.508 25.788 30.866 26.008 31.314C26.232 31.758 26.346 32.244 26.35 32.772ZM31.1399 30.84H29.7059L29.6999 36H28.8599L28.8659 30.84H27.7799V30H28.8659L28.8599 28.116H29.6999L29.7059 30H31.1399V30.84ZM34.4778 36.114C34.1498 36.106 33.8298 36.046 33.5178 35.934C33.2058 35.822 32.9338 35.67 32.7018 35.478C32.4698 35.286 32.3038 35.068 32.2038 34.824L32.9298 34.512C32.9938 34.668 33.1118 34.812 33.2838 34.944C33.4598 35.072 33.6598 35.176 33.8838 35.256C34.1078 35.332 34.3298 35.37 34.5498 35.37C34.7938 35.37 35.0218 35.33 35.2337 35.25C35.4458 35.17 35.6178 35.056 35.7498 34.908C35.8858 34.756 35.9538 34.578 35.9538 34.374C35.9538 34.154 35.8818 33.982 35.7378 33.858C35.5938 33.73 35.4118 33.63 35.1918 33.558C34.9718 33.482 34.7458 33.41 34.5138 33.342C34.0898 33.226 33.7158 33.098 33.3918 32.958C33.0678 32.818 32.8138 32.64 32.6298 32.424C32.4498 32.204 32.3598 31.922 32.3598 31.578C32.3598 31.214 32.4618 30.9 32.6658 30.636C32.8738 30.368 33.1438 30.162 33.4758 30.018C33.8118 29.87 34.1698 29.796 34.5498 29.796C35.0378 29.796 35.4818 29.902 35.8818 30.114C36.2858 30.326 36.5778 30.608 36.7578 30.96L36.0798 31.362C36.0078 31.198 35.8938 31.056 35.7378 30.936C35.5818 30.816 35.4038 30.722 35.2038 30.654C35.0078 30.586 34.8078 30.55 34.6038 30.546C34.3478 30.542 34.1098 30.58 33.8898 30.66C33.6698 30.736 33.4918 30.85 33.3558 31.002C33.2238 31.154 33.1578 31.34 33.1578 31.56C33.1578 31.78 33.2238 31.948 33.3558 32.064C33.4878 32.176 33.6658 32.268 33.8898 32.34C34.1178 32.408 34.3738 32.488 34.6578 32.58C35.0218 32.696 35.3638 32.828 35.6838 32.976C36.0038 33.124 36.2618 33.308 36.4578 33.528C36.6538 33.748 36.7498 34.026 36.7458 34.362C36.7458 34.722 36.6378 35.036 36.4218 35.304C36.2058 35.572 35.9258 35.778 35.5818 35.922C35.2378 36.062 34.8698 36.126 34.4778 36.114Z" fill="#AF9AFF"/>
</svg>
