<svg width="34" height="37" viewBox="0 0 34 37" fill="none" xmlns="http://www.w3.org/2000/svg">
<path d="M15 20V14H19V20H24V12H27L17 3L7 12H10V20H15Z" fill="#0325FF"/>
<path d="M6.47 27.6H7.31V36H6.47V31.92H2.06V36H1.22V27.6H2.06V31.08H6.47V27.6ZM11.6897 36.156C11.1377 36.156 10.6337 36.014 10.1777 35.73C9.72569 35.446 9.36369 35.066 9.09169 34.59C8.82369 34.11 8.68969 33.58 8.68969 33C8.68969 32.56 8.76769 32.15 8.92369 31.77C9.07969 31.386 9.29369 31.05 9.56569 30.762C9.84169 30.47 10.1617 30.242 10.5257 30.078C10.8897 29.914 11.2777 29.832 11.6897 29.832C12.2417 29.832 12.7437 29.974 13.1957 30.258C13.6517 30.542 14.0137 30.924 14.2817 31.404C14.5537 31.884 14.6897 32.416 14.6897 33C14.6897 33.436 14.6117 33.844 14.4557 34.224C14.2997 34.604 14.0837 34.94 13.8077 35.232C13.5357 35.52 13.2177 35.746 12.8537 35.91C12.4937 36.074 12.1057 36.156 11.6897 36.156ZM11.6897 35.316C12.0977 35.316 12.4637 35.21 12.7877 34.998C13.1157 34.782 13.3737 34.498 13.5617 34.146C13.7537 33.794 13.8497 33.412 13.8497 33C13.8497 32.58 13.7537 32.194 13.5617 31.842C13.3697 31.486 13.1097 31.202 12.7817 30.99C12.4577 30.778 12.0937 30.672 11.6897 30.672C11.2817 30.672 10.9137 30.78 10.5857 30.996C10.2617 31.208 10.0037 31.49 9.81169 31.842C9.62369 32.194 9.52969 32.58 9.52969 33C9.52969 33.432 9.62769 33.824 9.82369 34.176C10.0197 34.524 10.2817 34.802 10.6097 35.01C10.9377 35.214 11.2977 35.316 11.6897 35.316ZM15.9439 36V30H16.7839V30.966C16.9919 30.642 17.2179 30.38 17.4619 30.18C17.7099 29.98 18.0239 29.88 18.4039 29.88C18.9039 29.88 19.3279 30.006 19.6759 30.258C20.0279 30.506 20.3079 30.844 20.5159 31.272C20.7279 30.836 21.0119 30.496 21.3679 30.252C21.7239 30.004 22.1439 29.88 22.6279 29.88C23.1359 29.88 23.5719 30.012 23.9359 30.276C24.3039 30.536 24.5879 30.882 24.7879 31.314C24.9879 31.746 25.0879 32.22 25.0879 32.736V36H24.2479V32.736C24.2479 32.364 24.1839 32.026 24.0559 31.722C23.9279 31.418 23.7439 31.176 23.5039 30.996C23.2639 30.812 22.9719 30.72 22.6279 30.72C22.2879 30.72 21.9899 30.812 21.7339 30.996C21.4819 31.176 21.2859 31.418 21.1459 31.722C21.0059 32.026 20.9359 32.364 20.9359 32.736V36H20.0959V32.736C20.0959 32.364 20.0259 32.026 19.8859 31.722C19.7459 31.418 19.5479 31.176 19.2919 30.996C19.0399 30.812 18.7439 30.72 18.4039 30.72C18.0879 30.72 17.8079 30.818 17.5639 31.014C17.3199 31.206 17.1279 31.462 16.9879 31.782C16.8519 32.098 16.7839 32.442 16.7839 32.814V36H15.9439ZM29.2475 36.156C28.6955 36.156 28.1915 36.014 27.7355 35.73C27.2835 35.446 26.9215 35.066 26.6495 34.59C26.3815 34.11 26.2475 33.58 26.2475 33C26.2475 32.56 26.3255 32.15 26.4815 31.77C26.6375 31.386 26.8515 31.05 27.1235 30.762C27.3995 30.47 27.7195 30.242 28.0835 30.078C28.4475 29.914 28.8355 29.832 29.2475 29.832C29.6915 29.832 30.0995 29.92 30.4715 30.096C30.8475 30.272 31.1695 30.518 31.4375 30.834C31.7095 31.15 31.9135 31.52 32.0495 31.944C32.1895 32.368 32.2475 32.826 32.2235 33.318H27.1355C27.1835 33.698 27.3035 34.038 27.4955 34.338C27.6915 34.638 27.9395 34.876 28.2395 35.052C28.5435 35.224 28.8795 35.312 29.2475 35.316C29.6475 35.316 30.0075 35.212 30.3275 35.004C30.6515 34.796 30.9115 34.51 31.1075 34.146L31.9595 34.344C31.7195 34.876 31.3575 35.312 30.8735 35.652C30.3895 35.988 29.8475 36.156 29.2475 36.156ZM27.1115 32.64H31.3775C31.3495 32.268 31.2355 31.928 31.0355 31.62C30.8395 31.308 30.5855 31.06 30.2735 30.876C29.9615 30.688 29.6195 30.594 29.2475 30.594C28.8755 30.594 28.5355 30.686 28.2275 30.87C27.9195 31.05 27.6675 31.296 27.4715 31.608C27.2755 31.916 27.1555 32.26 27.1115 32.64Z" fill="#0325FF"/>
</svg>
