<svg width="24" height="24" viewBox="0 0 24 24" fill="none" xmlns="http://www.w3.org/2000/svg">
<mask id="path-1-inside-1_234:1414" fill="white">
<path fill-rule="evenodd" clip-rule="evenodd" d="M22 12L12 3L2 12V21H22V12Z"/>
</mask>
<path d="M12 3L13.3379 1.51341L12 0.309275L10.6621 1.51341L12 3ZM22 12H24V11.1093L23.3379 10.5134L22 12ZM2 12L0.662071 10.5134L0 11.1093V12H2ZM2 21H0V23H2V21ZM22 21V23H24V21H22ZM10.6621 4.48659L20.6621 13.4866L23.3379 10.5134L13.3379 1.51341L10.6621 4.48659ZM3.33793 13.4866L13.3379 4.48659L10.6621 1.51341L0.662071 10.5134L3.33793 13.4866ZM4 21V12H0V21H4ZM22 19H2V23H22V19ZM20 12V21H24V12H20Z" fill="black" mask="url(#path-1-inside-1_234:1414)"/>
</svg>
