<svg width="24" height="24" viewBox="0 0 24 24" fill="none" xmlns="http://www.w3.org/2000/svg">
<path d="M3.90352 3.57145L3.63247 3H3.63506L3.91674 3.59932L3.90352 3.57145ZM7.50352 11.1615L4.58109 5H5.21H20C20 5.00186 19.9999 5.00362 19.9998 5.00524L16.4244 11.487L16.4232 11.4892C16.2558 11.7945 15.9287 12 15.55 12H8.1H7.51585L7.72296 11.6241L7.50352 11.1615ZM6.12584 14.5226L6.2544 14.2893L6.22986 14.3875L6.19986 14.5075L6.17 14.6269V14.75C6.17 15.4423 6.72772 16 7.42 16H7C6.45228 16 6 15.5477 6 15C6 14.8214 6.04586 14.6628 6.11824 14.5361L6.12209 14.5294L6.12584 14.5226ZM6.01 20C6.01 19.4457 6.4588 19 7 19C7.54772 19 8 19.4523 8 20C8 20.5477 7.54772 21 7 21C6.4588 21 6.01 20.5543 6.01 20ZM16.01 20C16.01 19.4457 16.4588 19 17 19C17.5477 19 18 19.4523 18 20C18 20.5477 17.5477 21 17 21C16.4588 21 16.01 20.5543 16.01 20Z" stroke="black" stroke-width="2"/>
</svg>
