<svg width="87" height="37" viewBox="0 0 87 37" fill="none" xmlns="http://www.w3.org/2000/svg">
<path d="M11.3644 27.1548L11.4883 20.8997C11.4883 16.6471 10.8896 14.5208 9.69229 14.5208C8.8459 14.5208 7.93757 14.9749 6.9673 15.8833C5.99704 16.771 5.33644 17.8857 4.98549 19.2276C4.75841 20.0946 4.64487 21.6532 4.64487 23.9034L4.76873 26.969L2.01278 27.1548C2.05406 22.0971 2.07471 18.9799 2.07471 17.8032L1.88891 12.508L4.05652 12.3222L4.76873 15.3878H4.8926C4.97517 15.3053 5.07839 15.1917 5.20225 15.0472C5.34676 14.8821 5.62545 14.6137 6.03833 14.2421C6.47185 13.8705 6.89505 13.5402 7.30793 13.2512C8.44334 12.4874 9.48586 12.1055 10.4355 12.1055C11.4057 12.1055 12.1386 12.3945 12.634 12.9725C13.1295 13.5505 13.5011 14.3763 13.7488 15.4498L13.9036 15.5117C15.7203 13.2409 17.7744 12.1055 20.0658 12.1055C21.0774 12.1055 21.8412 12.5699 22.3573 13.4989C22.8734 14.4279 23.1315 15.6872 23.1315 17.2767V20.3733C23.1315 23.7796 23.1624 26.0091 23.2243 27.0619L20.5303 27.2477C20.6129 23.2841 20.6542 20.3527 20.6542 18.4534C20.6542 15.9968 20.1071 14.7685 19.013 14.7685C17.9189 14.7685 16.8144 15.3981 15.6997 16.6574C14.6055 17.9167 14.0585 19.1347 14.0585 20.3114L13.9965 26.969L11.3644 27.1548ZM27.8005 14.0873L27.8934 12.0435H32.5073V27L30.061 27.1239C30.061 25.1214 30.0197 22.6958 29.9372 19.8469C29.8546 16.9774 29.803 15.0369 29.7823 14.0253L27.8005 14.0873ZM33.0957 8.51342C33.0957 9.0708 32.9202 9.53529 32.5692 9.90688C32.2389 10.2785 31.7848 10.4643 31.2067 10.4643C30.6287 10.4643 30.1746 10.3404 29.8443 10.0927C29.5346 9.82431 29.3798 9.45272 29.3798 8.97791C29.3798 8.48245 29.5759 8.04893 29.9681 7.67734C30.3604 7.30575 30.8764 7.11996 31.5164 7.11996C32.5692 7.11996 33.0957 7.58445 33.0957 8.51342ZM37.2027 14.0873L37.2956 12.0435H41.9095V27L39.4632 27.1239C39.4632 25.1214 39.422 22.6958 39.3394 19.8469C39.2568 16.9774 39.2052 15.0369 39.1846 14.0253L37.2027 14.0873ZM42.4979 8.51342C42.4979 9.0708 42.3224 9.53529 41.9715 9.90688C41.6412 10.2785 41.187 10.4643 40.609 10.4643C40.031 10.4643 39.5768 10.3404 39.2465 10.0927C38.9368 9.82431 38.782 9.45272 38.782 8.97791C38.782 8.48245 38.9781 8.04893 39.3703 7.67734C39.7626 7.30575 40.2787 7.11996 40.9186 7.11996C41.9715 7.11996 42.4979 7.58445 42.4979 8.51342ZM45.7999 6.9961L45.645 4.67366L50.7234 4.33304L50.2589 14.7995L50.5067 14.9543C51.064 14.3763 51.5285 13.9324 51.9001 13.6228C52.2717 13.2925 52.7878 12.9828 53.4484 12.6938C54.1297 12.4048 54.8522 12.2603 55.616 12.2603C57.2675 12.2603 58.5371 12.8486 59.4248 14.0253C60.3331 15.202 60.7873 16.5645 60.7873 18.1128C60.7873 19.6405 60.5189 21.0649 59.9822 22.3861C59.4661 23.6867 58.6713 24.8014 57.5978 25.7304C56.5244 26.6594 55.3993 27.1239 54.2226 27.1239C53.0459 27.1239 52.0859 26.969 51.3427 26.6594C50.5996 26.3497 49.9906 25.9368 49.5158 25.4207C49.0616 24.9046 48.7003 24.2544 48.432 23.4699C47.9365 22.0661 47.6888 19.9914 47.6888 17.2458C47.6888 14.4795 47.761 11.0216 47.9055 6.87223L45.7999 6.9961ZM54.2535 24.8324C55.3064 24.8324 56.1837 24.2028 56.8856 22.9435C57.6082 21.6636 57.9694 20.3424 57.9694 18.9799C57.9694 17.5967 57.7114 16.5026 57.1953 15.6975C56.6792 14.8717 55.8431 14.4589 54.687 14.4589C53.531 14.4589 52.5194 15.0782 51.6524 16.3168C50.7854 17.5348 50.3518 18.8354 50.3518 20.2185C50.3518 21.6016 50.6821 22.7164 51.3427 23.5628C52.0033 24.4092 52.9736 24.8324 54.2535 24.8324ZM72.0826 12.1983C75.8191 12.1983 77.6874 14.5517 77.6874 19.2586C77.6874 21.5913 77.099 23.5009 75.9223 24.9872C74.7456 26.4736 73.187 27.2168 71.2465 27.2168C69.3266 27.2168 67.8609 26.5768 66.8493 25.2969C65.8584 23.9963 65.363 22.2622 65.363 20.0946C65.363 18.856 65.6004 17.6587 66.0752 16.5026C66.55 15.3259 67.3138 14.3143 68.3667 13.4679C69.4402 12.6215 70.6788 12.1983 72.0826 12.1983ZM67.8093 19.6301C67.8093 21.0959 68.1189 22.3551 68.7383 23.408C69.3576 24.4608 70.2246 24.9872 71.3394 24.9872C72.4748 24.9872 73.3728 24.5331 74.0334 23.6247C74.7147 22.6958 75.0553 21.3849 75.0553 19.6921C75.0553 16.1413 73.9921 14.366 71.8658 14.366C70.5446 14.366 69.533 14.8821 68.8312 15.9142C68.1499 16.9258 67.8093 18.1644 67.8093 19.6301Z" fill="#0325FF"/>
</svg>
