<svg width="77" height="24" viewBox="0 0 77 24" fill="none" xmlns="http://www.w3.org/2000/svg">
<path d="M10.3644 23.1548L10.4883 16.8997C10.4883 12.6471 9.88964 10.5208 8.69229 10.5208C7.8459 10.5208 6.93757 10.9749 5.9673 11.8833C4.99704 12.771 4.33644 13.8857 3.98549 15.2276C3.75841 16.0946 3.64487 17.6532 3.64487 19.9034L3.76873 22.969L1.01278 23.1548C1.05406 18.0971 1.07471 14.9799 1.07471 13.8032L0.888914 8.50801L3.05652 8.32221L3.76873 11.3878H3.8926C3.97517 11.3053 4.07839 11.1917 4.20225 11.0472C4.34676 10.8821 4.62545 10.6137 5.03833 10.2421C5.47185 9.8705 5.89505 9.5402 6.30793 9.25119C7.44334 8.48736 8.48586 8.10545 9.43547 8.10545C10.4057 8.10545 11.1386 8.39447 11.634 8.97249C12.1295 9.55052 12.5011 10.3763 12.7488 11.4498L12.9036 11.5117C14.7203 9.24086 16.7744 8.10545 19.0658 8.10545C20.0774 8.10545 20.8412 8.56994 21.3573 9.49891C21.8734 10.4279 22.1315 11.6872 22.1315 13.2767V16.3733C22.1315 19.7796 22.1624 22.0091 22.2243 23.0619L19.5303 23.2477C19.6129 19.2841 19.6542 16.3527 19.6542 14.4534C19.6542 11.9968 19.1071 10.7685 18.013 10.7685C16.9189 10.7685 15.8144 11.3981 14.6997 12.6574C13.6055 13.9167 13.0585 15.1347 13.0585 16.3114L12.9965 22.969L10.3644 23.1548ZM26.8005 10.0873L26.8934 8.04352H31.5073V23L29.061 23.1239C29.061 21.1214 29.0197 18.6958 28.9372 15.8469C28.8546 12.9774 28.803 11.0369 28.7823 10.0253L26.8005 10.0873ZM32.0957 4.51342C32.0957 5.0708 31.9202 5.53529 31.5692 5.90688C31.2389 6.27847 30.7848 6.46426 30.2067 6.46426C29.6287 6.46426 29.1746 6.3404 28.8443 6.09268C28.5346 5.82431 28.3798 5.45272 28.3798 4.97791C28.3798 4.48245 28.5759 4.04893 28.9681 3.67734C29.3604 3.30575 29.8764 3.11996 30.5164 3.11996C31.5692 3.11996 32.0957 3.58445 32.0957 4.51342ZM36.2027 10.0873L36.2956 8.04352H40.9095V23L38.4632 23.1239C38.4632 21.1214 38.422 18.6958 38.3394 15.8469C38.2568 12.9774 38.2052 11.0369 38.1846 10.0253L36.2027 10.0873ZM41.4979 4.51342C41.4979 5.0708 41.3224 5.53529 40.9715 5.90688C40.6412 6.27847 40.187 6.46426 39.609 6.46426C39.031 6.46426 38.5768 6.3404 38.2465 6.09268C37.9368 5.82431 37.782 5.45272 37.782 4.97791C37.782 4.48245 37.9781 4.04893 38.3703 3.67734C38.7626 3.30575 39.2787 3.11996 39.9186 3.11996C40.9715 3.11996 41.4979 3.58445 41.4979 4.51342ZM44.7999 2.9961L44.645 0.673661L49.7234 0.333036L49.2589 10.7995L49.5067 10.9543C50.064 10.3763 50.5285 9.93243 50.9001 9.62278C51.2717 9.29247 51.7878 8.98282 52.4484 8.6938C53.1297 8.40479 53.8522 8.26028 54.616 8.26028C56.2675 8.26028 57.5371 8.84863 58.4248 10.0253C59.3331 11.202 59.7873 12.5645 59.7873 14.1128C59.7873 15.6405 59.5189 17.0649 58.9822 18.3861C58.4661 19.6867 57.6713 20.8014 56.5978 21.7304C55.5244 22.6594 54.3993 23.1239 53.2226 23.1239C52.0459 23.1239 51.0859 22.969 50.3427 22.6594C49.5996 22.3497 48.9906 21.9368 48.5158 21.4207C48.0616 20.9046 47.7003 20.2544 47.432 19.4699C46.9365 18.0661 46.6888 15.9914 46.6888 13.2458C46.6888 10.4795 46.761 7.02165 46.9055 2.87223L44.7999 2.9961ZM53.2535 20.8324C54.3064 20.8324 55.1837 20.2028 55.8856 18.9435C56.6082 17.6636 56.9694 16.3424 56.9694 14.9799C56.9694 13.5967 56.7114 12.5026 56.1953 11.6975C55.6792 10.8717 54.8431 10.4589 53.687 10.4589C52.531 10.4589 51.5194 11.0782 50.6524 12.3168C49.7854 13.5348 49.3518 14.8354 49.3518 16.2185C49.3518 17.6016 49.6821 18.7164 50.3427 19.5628C51.0033 20.4092 51.9736 20.8324 53.2535 20.8324ZM71.0826 8.19835C74.8191 8.19835 76.6874 10.5517 76.6874 15.2586C76.6874 17.5913 76.099 19.5009 74.9223 20.9872C73.7456 22.4736 72.187 23.2168 70.2465 23.2168C68.3266 23.2168 66.8609 22.5768 65.8493 21.2969C64.8584 19.9963 64.363 18.2622 64.363 16.0946C64.363 14.856 64.6004 13.6587 65.0752 12.5026C65.55 11.3259 66.3138 10.3143 67.3667 9.46795C68.4402 8.62155 69.6788 8.19835 71.0826 8.19835ZM66.8093 15.6301C66.8093 17.0959 67.1189 18.3551 67.7383 19.408C68.3576 20.4608 69.2246 20.9872 70.3394 20.9872C71.4748 20.9872 72.3728 20.5331 73.0334 19.6247C73.7147 18.6958 74.0553 17.3849 74.0553 15.6921C74.0553 12.1413 72.9921 10.366 70.8658 10.366C69.5446 10.366 68.533 10.8821 67.8312 11.9142C67.1499 12.9258 66.8093 14.1644 66.8093 15.6301Z" fill="#0325FF"/>
</svg>
