<svg width="76" height="29" viewBox="0 0 76 29" fill="none" xmlns="http://www.w3.org/2000/svg">
<circle cx="14.4507" cy="14.4507" r="14.4507" fill="#FFDE03"/>
<circle cx="14.4507" cy="14.4507" r="14.4507" fill="#FFDE03"/>
<path d="M16.0493 22.1239L16.1484 17.1198C16.1484 13.7177 15.6695 12.0166 14.7116 12.0166C14.0345 12.0166 13.3078 12.38 12.5316 13.1066C11.7554 13.8168 11.2269 14.7086 10.9462 15.7821C10.7645 16.4757 10.6737 17.7226 10.6737 19.5227L10.7727 21.9752L8.56798 22.1239C8.60101 18.0777 8.61752 15.5839 8.61752 14.6425L8.46889 10.4064L10.203 10.2578L10.7727 12.7103H10.8718C10.9379 12.6442 11.0205 12.5534 11.1196 12.4378C11.2352 12.3056 11.4581 12.0909 11.7884 11.7937C12.1352 11.4964 12.4738 11.2322 12.8041 11.001C13.7124 10.3899 14.5464 10.0844 15.3061 10.0844C16.0823 10.0844 16.6686 10.3156 17.065 10.778C17.4614 11.2404 17.7586 11.901 17.9568 12.7598L18.0807 12.8094C19.534 10.9927 21.1773 10.0844 23.0104 10.0844C23.8197 10.0844 24.4307 10.456 24.8436 11.1991C25.2565 11.9423 25.4629 12.9497 25.4629 14.2214V16.6987C25.4629 19.4236 25.4877 21.2073 25.5372 22.0495L23.382 22.1982C23.4481 19.0273 23.4811 16.6821 23.4811 15.1628C23.4811 13.1975 23.0435 12.2148 22.1682 12.2148C21.2929 12.2148 20.4093 12.7185 19.5175 13.7259C18.6422 14.7334 18.2045 15.7078 18.2045 16.6491L18.155 21.9752L16.0493 22.1239ZM29.1982 11.6698L29.2725 10.0348H32.9636V22L31.0066 22.0991C31.0066 20.4971 30.9735 18.5566 30.9075 16.2775C30.8414 13.9819 30.8001 12.4295 30.7836 11.6203L29.1982 11.6698ZM33.4343 7.21074C33.4343 7.65665 33.2939 8.02824 33.0132 8.32551C32.7489 8.62278 32.3856 8.77142 31.9232 8.77142C31.4607 8.77142 31.0974 8.67232 30.8332 8.47414C30.5854 8.25945 30.4616 7.96218 30.4616 7.58233C30.4616 7.18597 30.6185 6.83915 30.9323 6.54188C31.246 6.24461 31.6589 6.09597 32.1709 6.09597C33.0132 6.09597 33.4343 6.46756 33.4343 7.21074ZM36.7199 11.6698L36.7943 10.0348H40.4854V22L38.5284 22.0991C38.5284 20.4971 38.4953 18.5566 38.4293 16.2775C38.3632 13.9819 38.3219 12.4295 38.3054 11.6203L36.7199 11.6698ZM40.9561 7.21074C40.9561 7.65665 40.8157 8.02824 40.5349 8.32551C40.2707 8.62278 39.9074 8.77142 39.4449 8.77142C38.9825 8.77142 38.6192 8.67232 38.3549 8.47414C38.1072 8.25945 37.9834 7.96218 37.9834 7.58233C37.9834 7.18597 38.1402 6.83915 38.454 6.54188C38.7678 6.24461 39.1807 6.09597 39.6927 6.09597C40.5349 6.09597 40.9561 6.46756 40.9561 7.21074ZM43.5976 5.99688L43.4738 4.13893L47.5365 3.86643L47.1649 12.2396L47.3631 12.3634C47.809 11.901 48.1806 11.546 48.4779 11.2982C48.7751 11.034 49.188 10.7863 49.7165 10.555C50.2615 10.3238 50.8395 10.2082 51.4506 10.2082C52.7718 10.2082 53.7875 10.6789 54.4976 11.6203C55.2243 12.5616 55.5876 13.6516 55.5876 14.8903C55.5876 16.1124 55.3729 17.2519 54.9435 18.3089C54.5306 19.3493 53.8948 20.2411 53.036 20.9843C52.1772 21.7275 51.2772 22.0991 50.3358 22.0991C49.3944 22.0991 48.6265 21.9752 48.0319 21.7275C47.4374 21.4798 46.9502 21.1495 46.5704 20.7366C46.207 20.3237 45.918 19.8035 45.7033 19.1759C45.307 18.0529 45.1088 16.3931 45.1088 14.1966C45.1088 11.9836 45.1666 9.21732 45.2822 5.89779L43.5976 5.99688ZM50.3606 20.2659C51.2028 20.2659 51.9047 19.7622 52.4663 18.7548C53.0443 17.7309 53.3333 16.6739 53.3333 15.5839C53.3333 14.4774 53.1269 13.6021 52.714 12.958C52.3011 12.2974 51.6322 11.9671 50.7074 11.9671C49.7825 11.9671 48.9733 12.4625 48.2797 13.4534C47.586 14.4278 47.2392 15.4683 47.2392 16.5748C47.2392 17.6813 47.5035 18.5731 48.0319 19.2502C48.5604 19.9274 49.3366 20.2659 50.3606 20.2659ZM64.6238 10.1587C67.613 10.1587 69.1077 12.0414 69.1077 15.8068C69.1077 17.673 68.637 19.2007 67.6956 20.3898C66.7543 21.5789 65.5074 22.1734 63.9549 22.1734C62.419 22.1734 61.2465 21.6614 60.4372 20.6375C59.6445 19.5971 59.2481 18.2098 59.2481 16.4757C59.2481 15.4848 59.4381 14.5269 59.8179 13.6021C60.1978 12.6607 60.8088 11.8515 61.6511 11.1744C62.5099 10.4972 63.5008 10.1587 64.6238 10.1587ZM61.2052 16.1041C61.2052 17.2767 61.4529 18.2841 61.9484 19.1264C62.4438 19.9686 63.1374 20.3898 64.0293 20.3898C64.9376 20.3898 65.656 20.0264 66.1845 19.2998C66.7295 18.5566 67.002 17.5079 67.002 16.1537C67.002 13.3131 66.1515 11.8928 64.4504 11.8928C63.3934 11.8928 62.5842 12.3056 62.0227 13.1314C61.4777 13.9406 61.2052 14.9315 61.2052 16.1041Z" fill="#0325FF"/>
</svg>
